<svg width="178" height="143" viewBox="0 0 178 143" fill="none" xmlns="http://www.w3.org/2000/svg">
<g style="mix-blend-mode:multiply" opacity="0.14">
<path d="M169.825 9H17.8408C13.4181 9 9.83276 12.5853 9.83276 17.008V134.992C9.83276 139.415 13.4181 143 17.8408 143H169.825C174.247 143 177.833 139.415 177.833 134.992V17.008C177.833 12.5853 174.247 9 169.825 9Z" fill="black"/>
</g>
<path d="M161.992 2H10.008C5.5853 2 2 5.5853 2 10.008V127.992C2 132.415 5.5853 136 10.008 136H161.992C166.415 136 170 132.415 170 127.992V10.008C170 5.5853 166.415 2 161.992 2Z" fill="#353F49"/>
<path d="M161.992 2H10.008C5.5853 2 2 5.5853 2 10.008V127.992C2 132.415 5.5853 136 10.008 136H161.992C166.415 136 170 132.415 170 127.992V10.008C170 5.5853 166.415 2 161.992 2Z" stroke="#283035" stroke-width="4" stroke-linecap="round" stroke-linejoin="round"/>
<path d="M10.007 2H161.992C164.116 2 166.153 2.8437 167.654 4.34549C169.156 5.84728 170 7.88414 170 10.008V22H2V10.008C2 7.88432 2.84355 5.84759 4.34512 4.34583C5.8467 2.84406 7.88331 2.00027 10.007 2Z" fill="#EAEEEF"/>
<path d="M10.007 2H161.992C164.116 2 166.153 2.8437 167.654 4.34549C169.156 5.84728 170 7.88414 170 10.008V22H2V10.008C2 7.88432 2.84355 5.84759 4.34512 4.34583C5.8467 2.84406 7.88331 2.00027 10.007 2Z" stroke="#283035" stroke-width="4" stroke-linecap="round" stroke-linejoin="round"/>
<path opacity="0.35" d="M16.3328 15.125C18.0587 15.125 19.4578 13.7259 19.4578 12C19.4578 10.2741 18.0587 8.875 16.3328 8.875C14.6069 8.875 13.2078 10.2741 13.2078 12C13.2078 13.7259 14.6069 15.125 16.3328 15.125Z" fill="#283035"/>
<path opacity="0.35" d="M26.1658 15.125C27.8917 15.125 29.2908 13.7259 29.2908 12C29.2908 10.2741 27.8917 8.875 26.1658 8.875C24.4399 8.875 23.0408 10.2741 23.0408 12C23.0408 13.7259 24.4399 15.125 26.1658 15.125Z" fill="#283035"/>
<path opacity="0.35" d="M35.5 15.125C37.2259 15.125 38.625 13.7259 38.625 12C38.625 10.2741 37.2259 8.875 35.5 8.875C33.7741 8.875 32.375 10.2741 32.375 12C32.375 13.7259 33.7741 15.125 35.5 15.125Z" fill="#283035"/>
<path d="M9.83276 29H20.8328" stroke="#46BB86" stroke-width="3" stroke-miterlimit="10"/>
<path d="M24.8328 29H54.8328" stroke="#46BB86" stroke-width="3" stroke-miterlimit="10"/>
<path d="M9.83276 37H54.8328" stroke="#389ABE" stroke-width="3" stroke-miterlimit="10"/>
<path d="M18.8328 45H40.8328" stroke="#E5C689" stroke-width="3" stroke-miterlimit="10"/>
<path d="M44.8328 45H68.8328" stroke="#F2F3F4" stroke-width="3" stroke-miterlimit="10"/>
<path d="M30.8328 53H76.8328" stroke="#F2F3F4" stroke-width="3" stroke-miterlimit="10"/>
<path d="M30.8328 61H64.8328" stroke="#FFA49F" stroke-width="3" stroke-miterlimit="10"/>
<path d="M18.8328 69H68.8328" stroke="#F2F3F4" stroke-width="3" stroke-miterlimit="10"/>
<path d="M9.83276 76H36.8328" stroke="#389ABE" stroke-width="3" stroke-miterlimit="10"/>
</svg>
