<svg id="visual" viewBox="0 0 900 600" width="900" height="600" xmlns="http://www.w3.org/2000/svg" xmlns:xlink="http://www.w3.org/1999/xlink" version="1.1"><path d="M0 368L21.5 371.2C43 374.3 86 380.7 128.8 381.5C171.7 382.3 214.3 377.7 257.2 376.5C300 375.3 343 377.7 385.8 385.5C428.7 393.3 471.3 406.7 514.2 411.8C557 417 600 414 642.8 410.5C685.7 407 728.3 403 771.2 404C814 405 857 411 878.5 414L900 417L900 601L878.5 601C857 601 814 601 771.2 601C728.3 601 685.7 601 642.8 601C600 601 557 601 514.2 601C471.3 601 428.7 601 385.8 601C343 601 300 601 257.2 601C214.3 601 171.7 601 128.8 601C86 601 43 601 21.5 601L0 601Z" fill="#c62368"></path><path d="M0 454L21.5 451.7C43 449.3 86 444.7 128.8 446.8C171.7 449 214.3 458 257.2 460C300 462 343 457 385.8 451.2C428.7 445.3 471.3 438.7 514.2 432.7C557 426.7 600 421.3 642.8 420.5C685.7 419.7 728.3 423.3 771.2 423.8C814 424.3 857 421.7 878.5 420.3L900 419L900 601L878.5 601C857 601 814 601 771.2 601C728.3 601 685.7 601 642.8 601C600 601 557 601 514.2 601C471.3 601 428.7 601 385.8 601C343 601 300 601 257.2 601C214.3 601 171.7 601 128.8 601C86 601 43 601 21.5 601L0 601Z" fill="#e95667"></path><path d="M0 449L21.5 457.8C43 466.7 86 484.3 128.8 491.3C171.7 498.3 214.3 494.7 257.2 490.5C300 486.3 343 481.7 385.8 477.8C428.7 474 471.3 471 514.2 472C557 473 600 478 642.8 480C685.7 482 728.3 481 771.2 478.5C814 476 857 472 878.5 470L900 468L900 601L878.5 601C857 601 814 601 771.2 601C728.3 601 685.7 601 642.8 601C600 601 557 601 514.2 601C471.3 601 428.7 601 385.8 601C343 601 300 601 257.2 601C214.3 601 171.7 601 128.8 601C86 601 43 601 21.5 601L0 601Z" fill="#fa7268"></path><path d="M0 510L21.5 509.2C43 508.3 86 506.7 128.8 505.3C171.7 504 214.3 503 257.2 501.5C300 500 343 498 385.8 498.5C428.7 499 471.3 502 514.2 509C557 516 600 527 642.8 527.2C685.7 527.3 728.3 516.7 771.2 509.2C814 501.7 857 497.3 878.5 495.2L900 493L900 601L878.5 601C857 601 814 601 771.2 601C728.3 601 685.7 601 642.8 601C600 601 557 601 514.2 601C471.3 601 428.7 601 385.8 601C343 601 300 601 257.2 601C214.3 601 171.7 601 128.8 601C86 601 43 601 21.5 601L0 601Z" fill="#e95667"></path><path d="M0 540L21.5 538.8C43 537.7 86 535.3 128.8 538.8C171.7 542.3 214.3 551.7 257.2 552.7C300 553.7 343 546.3 385.8 544.7C428.7 543 471.3 547 514.2 548.3C557 549.7 600 548.3 642.8 547.3C685.7 546.3 728.3 545.7 771.2 547.3C814 549 857 553 878.5 555L900 557L900 601L878.5 601C857 601 814 601 771.2 601C728.3 601 685.7 601 642.8 601C600 601 557 601 514.2 601C471.3 601 428.7 601 385.8 601C343 601 300 601 257.2 601C214.3 601 171.7 601 128.8 601C86 601 43 601 21.5 601L0 601Z" fill="#c62368"></path></svg>