<svg width="900" height="233" viewBox="0 0 900 233" fill="none" xmlns="http://www.w3.org/2000/svg">
<path d="M0 0L21.5 3.20001C43 6.30001 86 12.7 128.8 13.5C171.7 14.3 214.3 9.7 257.2 8.5C300 7.3 343 9.7 385.8 17.5C428.7 25.3 471.3 38.7 514.2 43.8C557 49 600 46 642.8 42.5C685.7 39 728.3 35 771.2 36C814 37 857 43 878.5 46L900 49V233H878.5C857 233 814 233 771.2 233C728.3 233 685.7 233 642.8 233C600 233 557 233 514.2 233C471.3 233 428.7 233 385.8 233C343 233 300 233 257.2 233C214.3 233 171.7 233 128.8 233C86 233 43 233 21.5 233H0V0Z" fill="#C62368"/>
<path d="M0 86L21.5 83.7C43 81.3 86 76.7 128.8 78.8C171.7 81 214.3 90 257.2 92C300 94 343 89 385.8 83.2C428.7 77.3 471.3 70.7 514.2 64.7C557 58.7 600 53.3 642.8 52.5C685.7 51.7 728.3 55.3 771.2 55.8C814 56.3 857 53.7 878.5 52.3L900 51V233H878.5C857 233 814 233 771.2 233C728.3 233 685.7 233 642.8 233C600 233 557 233 514.2 233C471.3 233 428.7 233 385.8 233C343 233 300 233 257.2 233C214.3 233 171.7 233 128.8 233C86 233 43 233 21.5 233H0V86Z" fill="#E95667"/>
<path d="M0 81L21.5 89.8C43 98.7 86 116.3 128.8 123.3C171.7 130.3 214.3 126.7 257.2 122.5C300 118.3 343 113.7 385.8 109.8C428.7 106 471.3 103 514.2 104C557 105 600 110 642.8 112C685.7 114 728.3 113 771.2 110.5C814 108 857 104 878.5 102L900 100V233H878.5C857 233 814 233 771.2 233C728.3 233 685.7 233 642.8 233C600 233 557 233 514.2 233C471.3 233 428.7 233 385.8 233C343 233 300 233 257.2 233C214.3 233 171.7 233 128.8 233C86 233 43 233 21.5 233H0V81Z" fill="#FA7268"/>
<path d="M0 142L21.5 141.2C43 140.3 86 138.7 128.8 137.3C171.7 136 214.3 135 257.2 133.5C300 132 343 130 385.8 130.5C428.7 131 471.3 134 514.2 141C557 148 600 159 642.8 159.2C685.7 159.3 728.3 148.7 771.2 141.2C814 133.7 857 129.3 878.5 127.2L900 125V233H878.5C857 233 814 233 771.2 233C728.3 233 685.7 233 642.8 233C600 233 557 233 514.2 233C471.3 233 428.7 233 385.8 233C343 233 300 233 257.2 233C214.3 233 171.7 233 128.8 233C86 233 43 233 21.5 233H0V142Z" fill="#E95667"/>
<path d="M0 172L21.5 170.8C43 169.7 86 167.3 128.8 170.8C171.7 174.3 214.3 183.7 257.2 184.7C300 185.7 343 178.3 385.8 176.7C428.7 175 471.3 179 514.2 180.3C557 181.7 600 180.3 642.8 179.3C685.7 178.3 728.3 177.7 771.2 179.3C814 181 857 185 878.5 187L900 189V233H878.5C857 233 814 233 771.2 233C728.3 233 685.7 233 642.8 233C600 233 557 233 514.2 233C471.3 233 428.7 233 385.8 233C343 233 300 233 257.2 233C214.3 233 171.7 233 128.8 233C86 233 43 233 21.5 233H0V172Z" fill="#C62368"/>
</svg>
